{
    "streams": [
        {
            "index": 0,
            "codec_name": "prores",
            "codec_long_name": "Apple ProRes (iCodec Pro)",
            "profile": "4444",
            "codec_type": "video",
            "codec_time_base": "1/25",
            "codec_tag_string": "ap4h",
            "codec_tag": "0x68347061",
            "width": 2048,
            "height": 1152,
            "coded_width": 2048,
            "coded_height": 1152,
            "has_b_frames": 0,
            "sample_aspect_ratio": "1:1",
            "display_aspect_ratio": "16:9",
            "pix_fmt": "yuv444p12le",
            "level": -99,
            "color_range": "tv",
            "color_space": "bt709",
            "field_order": "progressive",
            "refs": 1,
            "r_frame_rate": "25/1",
            "avg_frame_rate": "25/1",
            "time_base": "1/25",
            "start_pts": 0,
            "start_time": "0.000000",
            "duration_ts": 923,
            "duration": "36.920000",
            "bit_rate": "314513392",
            "bits_per_raw_sample": "12",
            "nb_frames": "923",
            "disposition": {
                "default": 1,
                "dub": 0,
                "original": 0,
                "comment": 0,
                "lyrics": 0,
                "karaoke": 0,
                "forced": 0,
                "hearing_impaired": 0,
                "visual_impaired": 0,
                "clean_effects": 0,
                "attached_pic": 0,
                "timed_thumbnails": 0
            },
            "tags": {
                "creation_time": "2019-06-07T01:20:12.000000Z",
                "language": "eng",
                "handler_name": "\u0019Apple Video Media Handler",
                "encoder": "Apple ProRes 4444",
                "timecode": "12:20:13:00"
            }
        },
        {
            "index": 1,
            "codec_name": "pcm_s24le",
            "codec_long_name": "PCM signed 24-bit little-endian",
            "codec_type": "audio",
            "codec_time_base": "1/48000",
            "codec_tag_string": "in24",
            "codec_tag": "0x34326e69",
            "sample_fmt": "s32",
            "sample_rate": "48000",
            "channels": 2,
            "bits_per_sample": 24,
            "r_frame_rate": "0/0",
            "avg_frame_rate": "0/0",
            "time_base": "1/48000",
            "start_pts": 0,
            "start_time": "0.000000",
            "duration_ts": 1772160,
            "duration": "36.920000",
            "bit_rate": "2304000",
            "bits_per_raw_sample": "24",
            "nb_frames": "1772160",
            "disposition": {
                "default": 1,
                "dub": 0,
                "original": 0,
                "comment": 0,
                "lyrics": 0,
                "karaoke": 0,
                "forced": 0,
                "hearing_impaired": 0,
                "visual_impaired": 0,
                "clean_effects": 0,
                "attached_pic": 0,
                "timed_thumbnails": 0
            },
            "tags": {
                "creation_time": "2019-06-07T01:20:12.000000Z",
                "language": "eng",
                "handler_name": "\u0019Apple Sound Media Handler",
                "timecode": "12:20:13:00"
            }
        },
        {
            "index": 2,
            "codec_type": "data",
            "codec_tag_string": "tmcd",
            "codec_tag": "0x64636d74",
            "r_frame_rate": "0/0",
            "avg_frame_rate": "25/1",
            "time_base": "1/25",
            "start_pts": 0,
            "start_time": "0.000000",
            "duration_ts": 923,
            "duration": "36.920000",
            "nb_frames": "1",
            "disposition": {
                "default": 1,
                "dub": 0,
                "original": 0,
                "comment": 0,
                "lyrics": 0,
                "karaoke": 0,
                "forced": 0,
                "hearing_impaired": 0,
                "visual_impaired": 0,
                "clean_effects": 0,
                "attached_pic": 0,
                "timed_thumbnails": 0
            },
            "tags": {
                "creation_time": "2019-06-07T01:20:12.000000Z",
                "language": "eng",
                "handler_name": "Time Code Media Handler",
                "timecode": "12:20:13:00"
            }
        }
    ],
    "format": {
        "filename": "Q:\\Projects\\HAZEN_ALPHA\\MEDIA_OCM\\DAY 1\\A001_06071220_C001.mov",
        "nb_streams": 3,
        "nb_programs": 0,
        "format_name": "mov,mp4,m4a,3gp,3g2,mj2",
        "format_long_name": "QuickTime / MOV",
        "start_time": "0.000000",
        "duration": "36.920000",
        "size": "1462514075",
        "bit_rate": "316904458",
        "probe_score": 100,
        "tags": {
            "major_brand": "qt  ",
            "minor_version": "537199360",
            "compatible_brands": "qt  ",
            "creation_time": "2019-06-07T01:20:12.000000Z",
            "com.apple.proapps.manufacturer": "Blackmagic Design",
            "com.blackmagic-design.camera.uuid": "599dee29-97db-4dbf-b60a-5e42e408077b",
            "com.blackmagic-design.camera.projectFPS": "25",
            "com.apple.proapps.shootingRate": "25",
            "com.blackmagic-design.camera.cameraType": "Blackmagic URSA Mini Pro 4.6K",
            "com.blackmagic-design.camera.shutterAngle": "180°",
            "com.blackmagic-design.camera.shutterMode": "Speed",
            "com.blackmagic-design.camera.aperture": "f1.7",
            "com.blackmagic-design.camera.iso": "800",
            "com.blackmagic-design.camera.whiteBalanceKelvin": "3550",
            "com.blackmagic-design.camera.whiteBalanceTint": "15",
            "com.apple.proapps.customgamma": "com.blackmagic-design.camera.filmlog",
            "com.blackmagic-design.camera.look.LUTName": "Blackmagic 4.6K Film to Extended Video.cube",
            "com.blackmagic-design.camera.guides.aspectRatio": "16:9",
            "com.blackmagic-design.camera.guides.safeArea": "85",
            "com.blackmagic-design.camera.firmware": "6.0",
            "com.apple.proapps.clipID": "A001_06071220_C001",
            "com.apple.proapps.reel": "1",
            "com.apple.proapps.scene": "1",
            "com.apple.proapps.shot": "99",
            "com.apple.proapps.isGood": "0",
            "com.blackmagic-design.camera.environment": "interior",
            "com.blackmagic-design.camera.dayNight": "day",
            "com.blackmagic-design.camera.lensFocalLength": "64mm",
            "com.blackmagic-design.camera.lensDistance": "1390mm to 1460mm",
            "com.apple.proapps.cameraName": "A",
            "com.blackmagic-design.camera.colorScience": "Blackmagic URSA Mini Pro 4.6K, Color Science Gen 4",
            "com.blackmagic-design.camera.dateRecorded": "2019:06:07",
            "com.blackmagic-design.camera.NDFilter": "Clear",
            "com.blackmagic-design.camera.windowedSensor": "0"
        }
    }
}
